<svg width="41" height="41" viewBox="0 0 41 41" fill="none" xmlns="http://www.w3.org/2000/svg">
<path d="M25.0411 11.4056H29.6008V15.9678C29.6008 17.2224 30.6267 18.2489 31.8806 18.2489C33.1345 18.2489 34.1605 17.2224 34.1605 15.9678V11.4056H38.7202C39.9741 11.4056 41 10.3791 41 9.12446C41 7.86984 39.9741 6.84334 38.7202 6.84334H34.1605V2.28111C34.1605 1.0265 33.1345 0 31.8806 0C30.6267 0 29.6008 1.0265 29.6008 2.28111V6.84334H25.0411C23.7872 6.84334 22.7612 7.86984 22.7612 9.12446C22.7612 10.3791 23.7872 11.4056 25.0411 11.4056ZM36.9191 27.9893L31.1283 27.3277C30.4474 27.2477 29.7572 27.3232 29.1096 27.5484C28.462 27.7736 27.8739 28.1427 27.3893 28.628L23.1944 32.8252C16.7224 29.5318 11.4618 24.2683 8.17022 17.7927L12.3879 13.5726C13.3683 12.5917 13.847 11.2003 13.6875 9.8316L13.0263 4.08319C12.9032 2.96999 12.3751 1.941 11.5426 1.19222C10.7102 0.443449 9.63157 0.0272154 8.5122 0.0228111H4.56807C1.99184 0.0228111 -0.151214 2.16706 0.00837496 4.74472C1.21669 24.2254 16.788 39.7826 36.2351 40.9916C38.8113 41.1513 40.9544 39.007 40.9544 36.4294V32.4831C40.9772 30.202 39.2217 28.2402 36.9191 27.9893Z" fill="white"/>
</svg>
