<svg width="54" height="49" viewBox="0 0 54 49" fill="none" xmlns="http://www.w3.org/2000/svg">
<path d="M53.0653 16.6618L28.1423 0.326818C27.8009 0.113367 27.4046 0 27 0C26.5954 0 26.1991 0.113367 25.8577 0.326818L0.934699 16.6618C0.64513 16.8465 0.407658 17.1001 0.244283 17.399C0.0809086 17.6979 -0.00308409 18.0326 8.65479e-05 18.3719V44.9163C8.65479e-05 45.9993 0.437721 47.038 1.21672 47.8039C1.99571 48.5697 3.05225 49 4.15392 49H49.8461C50.9477 49 52.0043 48.5697 52.7833 47.8039C53.5623 47.038 53.9999 45.9993 53.9999 44.9163V18.3719C54.0031 18.0326 53.9191 17.6979 53.7557 17.399C53.5923 17.1001 53.3549 16.8465 53.0653 16.6618ZM27 4.48714L48.2624 18.4229L30.8683 30.6231H23.1317L5.73757 18.4229L27 4.48714ZM4.15392 44.9163V22.328L21.2625 34.324C21.6101 34.5713 22.0277 34.7052 22.4567 34.7069H31.5433C31.9723 34.7052 32.3899 34.5713 32.7375 34.324L49.8461 22.328V44.9163H4.15392Z" fill="white"/>
</svg>
