<svg width="37" height="42" viewBox="0 0 37 42" fill="none" xmlns="http://www.w3.org/2000/svg">
<path d="M29.2105 15.5376C29.7623 15.5376 30.2245 15.3518 30.5971 14.9802C30.9709 14.6073 31.1579 14.1457 31.1579 13.5954V9.71098H35.0526C35.6044 9.71098 36.0666 9.52453 36.4392 9.15163C36.8131 8.78002 37 8.31907 37 7.76879C37 7.2185 36.8131 6.7569 36.4392 6.384C36.0666 6.01239 35.6044 5.82659 35.0526 5.82659H31.1579V1.9422C31.1579 1.39191 30.9709 0.930312 30.5971 0.55741C30.2245 0.185803 29.7623 0 29.2105 0C28.6588 0 28.1966 0.185803 27.824 0.55741C27.4501 0.930312 27.2632 1.39191 27.2632 1.9422V5.82659H23.3684C22.8167 5.82659 22.3545 6.01239 21.9819 6.384C21.608 6.7569 21.4211 7.2185 21.4211 7.76879C21.4211 8.31907 21.608 8.78002 21.9819 9.15163C22.3545 9.52453 22.8167 9.71098 23.3684 9.71098H27.2632V13.5954C27.2632 14.1457 27.4501 14.6073 27.824 14.9802C28.1966 15.3518 28.6588 15.5376 29.2105 15.5376ZM15.5789 23.3064C16.65 23.3064 17.5672 22.9257 18.3306 22.1643C19.0926 21.4043 19.4737 20.4902 19.4737 19.422C19.4737 18.3538 19.0926 17.439 18.3306 16.6776C17.5672 15.9176 16.65 15.5376 15.5789 15.5376C14.5079 15.5376 13.5913 15.9176 12.8293 16.6776C12.0659 17.439 11.6842 18.3538 11.6842 19.422C11.6842 20.4902 12.0659 21.4043 12.8293 22.1643C13.5913 22.9257 14.5079 23.3064 15.5789 23.3064ZM15.5789 42C15.3193 42 15.0596 41.9514 14.8 41.8543C14.5404 41.7572 14.3132 41.6277 14.1184 41.4659C9.37982 37.2902 5.84211 33.4142 3.50526 29.838C1.16842 26.2604 0 22.9179 0 19.8104C0 14.9549 1.56633 11.0867 4.699 8.20578C7.83037 5.32486 11.457 3.88439 15.5789 3.88439C15.9035 3.88439 16.2281 3.89216 16.5526 3.9077C16.8772 3.92453 17.2018 3.94913 17.5263 3.9815V7.91445C17.2018 7.84971 16.885 7.80892 16.576 7.79209C16.2683 7.77656 15.936 7.76879 15.5789 7.76879C12.3009 7.76879 9.53367 8.89332 7.27732 11.1424C5.02226 13.3927 3.89474 16.2821 3.89474 19.8104C3.89474 22.1087 4.85219 24.7384 6.76711 27.6996C8.68202 30.6621 11.6193 33.9561 15.5789 37.5815C19.5386 33.9561 22.4759 30.6621 24.3908 27.6996C26.3057 24.7384 27.2632 22.1087 27.2632 19.8104V19.422H31.1579V19.8104C31.1579 22.9179 29.9895 26.2604 27.6526 29.838C25.3158 33.4142 21.7781 37.2902 17.0395 41.4659C16.8447 41.6277 16.6175 41.7572 16.3579 41.8543C16.0982 41.9514 15.8386 42 15.5789 42Z" fill="white"/>
</svg>
